<svg width="94" height="34" viewBox="0 0 94 34" fill="none" xmlns="http://www.w3.org/2000/svg">
<path d="M58.0594 10.623C59.3544 10.623 60.5174 10.8658 61.5483 11.3515C62.5793 11.8372 63.4216 12.5347 64.0754 13.4438L63.0193 14.2471L62.9748 14.1929C61.724 12.6847 60.1233 11.9306 58.1726 11.9306C56.5633 11.9306 55.1771 12.4911 54.0142 13.6119C52.8512 14.7328 52.2697 16.1058 52.2697 17.7311C52.2697 19.3563 52.8386 20.7138 53.9765 21.8035C55.1143 22.8932 56.5381 23.4381 58.248 23.4381C60.159 23.4381 61.7495 22.7033 63.0193 21.2337L64.0754 22.037L64.0238 22.1036C63.3658 22.9426 62.5406 23.5836 61.5483 24.0265C60.5299 24.4811 59.4047 24.7084 58.1726 24.7084C56.0227 24.7084 54.2625 24.0359 52.8921 22.6908C51.5217 21.3458 50.8365 19.6458 50.8365 17.591C50.8365 16.3207 51.1539 15.1469 51.7888 14.0696C52.4237 12.9923 53.3038 12.1486 54.4291 11.5383C55.5543 10.9281 56.7644 10.623 58.0594 10.623ZM72.6042 10.6616L72.6042 11.9764C71.3244 12.1303 70.2308 12.6724 69.3232 13.6026C68.2356 14.7172 67.6919 16.0747 67.6919 17.675C67.6919 19.2753 68.2513 20.6297 69.3703 21.7381C70.2908 22.65 71.3688 23.1867 72.6042 23.3484L72.6042 24.6644C71.6276 24.5592 70.7068 24.2657 69.8418 23.7837C68.7354 23.1672 67.8647 22.3172 67.2298 21.2337C66.5949 20.1502 66.2774 18.9796 66.2774 17.7217C66.2774 16.4265 66.5917 15.2309 67.2204 14.135C67.849 13.039 68.7102 12.1797 69.8041 11.557C70.6756 11.0609 71.6089 10.7624 72.6042 10.6616ZM74.5534 10.7122C75.404 10.8442 76.2129 11.1227 76.9799 11.5477C78.0926 12.1642 78.9663 13.0173 79.6013 14.107C80.2362 15.1967 80.5536 16.3798 80.5536 17.6563C80.5536 18.9329 80.2393 20.116 79.6107 21.2057C78.9821 22.2954 78.1177 23.1516 77.0176 23.7743C76.243 24.2128 75.4216 24.4969 74.5534 24.6266L74.5535 23.3019C75.6596 23.1007 76.6318 22.5919 77.4702 21.7755C78.5829 20.692 79.1392 19.322 79.1392 17.6657C79.1392 16.0591 78.5766 14.7016 77.4513 13.5932C76.6128 12.7673 75.6468 12.249 74.5535 12.0386L74.5534 10.7122ZM35.8948 23.0458V24.3721H28.1815V23.0457L35.8948 23.0458ZM39.7186 10.9592V23.0831H44.9237V24.3721H38.3419V10.9592H39.7186ZM48.295 10.9592V24.3721H46.9371V10.9592H48.295ZM83.642 10.9592L92.6377 21.2337V10.9592H93.9767V24.3721H93.675L84.7358 14.2284V24.3721H83.3403V10.9592H83.642ZM35.8948 16.4701V17.7778L28.1815 17.7777V16.4701L35.8948 16.4701ZM35.9513 10.9592V12.2856L28.1815 12.2855V10.9592H35.9513Z" fill="white"/>
<path opacity="0.104143" d="M9.02031 9.75159C11.5782 9.75159 13.6518 7.6962 13.6518 5.16077C13.6518 2.62533 11.5782 0.569946 9.02031 0.569946C6.46243 0.569946 4.38885 2.62533 4.38885 5.16077C4.38885 7.6962 6.46243 9.75159 9.02031 9.75159Z" stroke="#00696A" stroke-width="0.156877" stroke-dasharray="0.33 0.55"/>
<path opacity="0.104143" d="M8.52995 33.9133C11.0878 33.9133 13.1614 31.8579 13.1614 29.3224C13.1614 26.787 11.0878 24.7316 8.52995 24.7316C5.97207 24.7316 3.8985 26.787 3.8985 29.3224C3.8985 31.8579 5.97207 33.9133 8.52995 33.9133Z" stroke="#00696A" stroke-width="0.156877" stroke-dasharray="0.33 0.55"/>
<path opacity="0.104143" d="M27.545 9.75159C30.1029 9.75159 32.1765 7.6962 32.1765 5.16077C32.1765 2.62533 30.1029 0.569946 27.545 0.569946C24.9871 0.569946 22.9136 2.62533 22.9136 5.16077C22.9136 7.6962 24.9871 9.75159 27.545 9.75159Z" stroke="#00696A" stroke-width="0.156877" stroke-dasharray="0.33 0.55"/>
<path opacity="0.104143" d="M27.0572 33.9133C29.6151 33.9133 31.6887 31.8579 31.6887 29.3224C31.6887 26.787 29.6151 24.7316 27.0572 24.7316C24.4994 24.7316 22.4258 26.787 22.4258 29.3224C22.4258 31.8579 24.4994 33.9133 27.0572 33.9133Z" stroke="#00696A" stroke-width="0.156877" stroke-dasharray="0.33 0.55"/>
<path fill-rule="evenodd" clip-rule="evenodd" d="M24.424 5.49878C24.424 2.05691 27.5616 0.0864258 30.6991 1.95009C29.3917 0.790442 27.6745 0.0864258 25.7935 0.0864258C21.6984 0.0864258 18.3783 3.42147 18.3783 7.53553V10.2729C18.3783 11.2535 17.5875 12.0485 16.6112 12.0489L7.81284 12.0524C6.837 12.0544 6.04575 11.2583 6.04575 10.2778V5.49878C6.04575 2.05691 9.18329 0.0864258 12.3208 1.95009C11.0134 0.790442 9.29618 0.0864258 7.41518 0.0864258C3.3201 0.0864258 0 3.42147 0 7.53553V26.4647C0 30.5786 3.3201 33.9135 7.41518 33.9135C9.29618 33.9135 11.0134 33.2095 12.3208 32.0499C9.18329 33.9135 6.04575 31.9431 6.04575 28.5015V19.9017C6.04575 18.9211 6.83649 18.1261 7.81284 18.1257L16.6112 18.1221C17.5875 18.1217 18.3798 18.9159 18.3818 19.8967L18.393 26.4647C18.393 30.5786 21.7131 33.9135 25.8082 33.9135C27.6892 33.9135 29.4065 33.2095 30.7139 32.0499C27.5763 33.9135 24.4388 31.9431 24.4388 28.5015L24.424 5.49878Z" fill="url(#paint0_linear_200_5536)"/>
<defs>
<linearGradient id="paint0_linear_200_5536" x1="15.3572" y1="33.2484" x2="15.3572" y2="3.75174" gradientUnits="userSpaceOnUse">
<stop stop-color="#00696A"/>
<stop offset="1" stop-color="#009B78"/>
</linearGradient>
</defs>
</svg>
